<?xml version="1.0" encoding="utf-8"?>
<!-- Generator: Adobe Illustrator 16.0.0, SVG Export Plug-In . SVG Version: 6.00 Build 0)  -->
<!DOCTYPE svg PUBLIC "-//W3C//DTD SVG 1.1//EN" "http://www.w3.org/Graphics/SVG/1.1/DTD/svg11.dtd">
<svg version="1.1" id="Layer_1" xmlns="http://www.w3.org/2000/svg" xmlns:xlink="http://www.w3.org/1999/xlink" x="0px" y="0px"
	 width="512px" height="512px" viewBox="0 0 512 512" enable-background="new 0 0 512 512" xml:space="preserve">
<path fill="#010101" d="M448,384c17.688,0,32-14.313,32-32V96c0-17.672-14.313-32-32-32H64c-17.688,0-32,14.328-32,32v256
	c0,17.688,14.313,32,32,32H0v32c0,17.688,14.313,32,32,32h448c17.688,0,32-14.313,32-32v-32H448z M64,96h384v256H64V96z M320,424
	H192v-16h128V424z M384,432c-8.844,0-16-7.156-16-16s7.156-16,16-16s16,7.156,16,16S392.844,432,384,432z M448,432
	c-8.844,0-16-7.156-16-16s7.156-16,16-16s16,7.156,16,16S456.844,432,448,432z"/>
</svg>
