<?xml version="1.0" encoding="utf-8"?>
<!-- Generator: Adobe Illustrator 16.0.0, SVG Export Plug-In . SVG Version: 6.00 Build 0)  -->
<!DOCTYPE svg PUBLIC "-//W3C//DTD SVG 1.1//EN" "http://www.w3.org/Graphics/SVG/1.1/DTD/svg11.dtd">
<svg version="1.1" id="Layer_1" xmlns="http://www.w3.org/2000/svg" xmlns:xlink="http://www.w3.org/1999/xlink" x="0px" y="0px"
	 width="512px" height="512px" viewBox="0 0 512 512" enable-background="new 0 0 512 512" xml:space="preserve">
<path fill="#010101" d="M416,32c17.656,0,32,14.359,32,32v384c0,17.656-14.344,32-32,32H96c-17.625,0-32-14.344-32-32V64
	c0-17.641,14.375-32,32-32H416 M416,0H96C60.656,0,32,28.656,32,64v384c0,35.344,28.656,64,64,64h320c35.344,0,64-28.656,64-64V64
	C480,28.656,451.344,0,416,0L416,0z M416,64H96v352h320V64z M256,432c-8.844,0-16,7.156-16,16s7.156,16,16,16s16-7.156,16-16
	S264.844,432,256,432z"/>
</svg>
