<?xml version="1.0" standalone="no"?>
<!DOCTYPE svg PUBLIC "-//W3C//DTD SVG 20010904//EN"
 "http://www.w3.org/TR/2001/REC-SVG-20010904/DTD/svg10.dtd">
<svg version="1.0" xmlns="http://www.w3.org/2000/svg"
 width="1000.000000pt" height="1000.000000pt" viewBox="0 0 1000.000000 1000.000000"
 preserveAspectRatio="xMidYMid meet">
<metadata>
Created by potrace 1.16, written by Peter Selinger 2001-2019
</metadata>
<g transform="translate(0.000000,1000.000000) scale(0.100000,-0.100000)"
fill="#000000" stroke="none">
<path d="M6959 9736 c-19 -7 -44 -19 -55 -27 -10 -8 -1304 -1302 -2875 -2874
-2825 -2828 -2857 -2861 -2868 -2910 -6 -27 -13 -71 -17 -97 -8 -64 -21 -73
-82 -58 -40 9 -56 9 -83 -3 -20 -8 -119 -101 -235 -218 -162 -166 -203 -212
-212 -245 -17 -59 -14 -123 7 -170 23 -51 436 -465 489 -490 25 -12 61 -17
111 -17 69 1 80 4 172 52 141 73 206 66 297 -33 91 -99 94 -154 16 -305 -66
-125 -72 -177 -34 -256 31 -63 874 -909 934 -936 49 -22 188 -26 224 -5 13 7
1452 1441 3198 3187 2382 2382 3180 3185 3196 3219 29 59 28 131 -2 190 -33
65 -864 905 -932 943 -41 22 -63 27 -117 27 -62 0 -72 -4 -161 -55 -76 -44
-104 -55 -139 -55 -87 0 -180 70 -223 168 -28 63 -20 115 31 202 24 39 46 92
51 123 13 66 -1 146 -32 190 -44 63 -422 427 -465 447 -49 23 -138 26 -194 6z
m-230 -1351 c55 -37 922 -912 959 -967 40 -58 40 -81 1 -144 -40 -64 -619
-642 -683 -683 -62 -39 -91 -39 -147 -2 -61 41 -972 958 -994 1000 -38 75 2
127 401 521 172 170 285 273 314 288 54 27 97 24 149 -13z m-1366 -1316 c58
-29 967 -938 996 -996 26 -53 26 -73 0 -126 -28 -55 -650 -677 -701 -700 -46
-21 -71 -21 -116 0 -52 23 -963 934 -991 990 -33 66 -28 102 23 170 66 86 624
637 671 661 51 27 66 27 118 1z m-1313 -1340 c50 -30 930 -914 969 -974 42
-65 39 -105 -17 -178 -63 -81 -601 -610 -656 -646 -58 -36 -97 -39 -146 -10
-43 25 -935 917 -979 978 -39 55 -39 84 0 147 42 66 633 656 684 683 52 26
101 26 145 0z m-1352 -1324 c43 -18 944 -911 992 -984 35 -53 38 -93 9 -141
-30 -50 -667 -682 -710 -704 -57 -30 -94 -17 -191 68 -127 112 -891 886 -917
929 -33 54 -25 103 28 170 63 82 601 611 655 646 56 35 80 38 134 16z"/>
<path d="M6558 8157 c-48 -29 -455 -449 -468 -482 -27 -70 -37 -57 389 -485
220 -220 411 -404 425 -410 16 -6 35 -6 51 0 31 12 519 484 534 517 14 31 13
62 -2 90 -15 26 -731 750 -767 775 -37 26 -116 24 -162 -5z"/>
<path d="M5228 6827 c-40 -24 -438 -429 -456 -464 -16 -30 -15 -79 3 -117 17
-34 718 -741 757 -763 31 -17 103 -16 136 1 32 18 445 432 461 463 15 30 14
109 -3 141 -16 30 -739 743 -764 754 -36 14 -97 8 -134 -15z"/>
<path d="M3884 5487 c-43 -31 -411 -405 -435 -442 -22 -36 -25 -95 -5 -133 18
-33 742 -755 773 -771 30 -15 79 -14 111 3 32 18 455 442 471 473 14 28 14 98
0 126 -16 31 -718 735 -751 753 -42 22 -127 17 -164 -9z"/>
<path d="M2592 4177 c-47 -25 -466 -436 -488 -479 -19 -37 -17 -87 5 -123 29
-48 765 -783 795 -794 16 -7 35 -7 50 -1 30 11 513 485 532 522 15 29 18 76 6
95 -24 37 -763 776 -788 788 -43 20 -62 19 -112 -8z"/>
<path d="M9080 7240 c-19 -10 -1380 -1364 -3025 -3009 -2381 -2381 -2993
-2998 -3004 -3030 -12 -31 -12 -47 -3 -78 24 -80 294 -358 396 -408 48 -24 65
-27 125 -23 63 3 73 7 126 48 125 96 419 407 431 456 12 47 -6 89 -71 168 -74
89 -82 121 -39 155 32 25 41 22 137 -51 69 -50 85 -58 124 -58 24 0 54 5 66
11 31 16 276 259 293 291 20 38 17 87 -7 128 -11 19 -62 76 -113 125 -104 100
-120 132 -88 174 41 56 69 41 239 -121 110 -106 125 -112 190 -81 40 19 263
236 293 286 22 36 26 106 9 140 -7 12 -31 45 -54 72 -65 78 -71 92 -48 124 28
37 61 38 108 1 22 -16 58 -43 79 -60 32 -24 49 -30 90 -30 67 0 85 12 242 163
139 133 171 179 155 219 -5 12 -63 77 -129 144 -66 66 -124 129 -130 140 -13
25 1 59 33 80 26 17 29 17 58 0 18 -9 75 -55 127 -102 128 -116 179 -141 233
-113 26 14 237 216 285 272 54 65 41 126 -47 222 -64 69 -76 108 -43 138 33
30 66 21 134 -37 78 -66 97 -76 145 -76 52 0 88 24 206 138 204 198 207 254
23 430 -42 41 -84 88 -92 104 -15 29 -15 32 4 57 11 16 31 27 49 29 26 3 47
-13 158 -112 139 -125 168 -140 228 -115 37 15 172 142 258 242 53 61 59 72
59 113 0 56 -9 72 -77 151 -62 70 -67 102 -22 136 34 25 55 18 127 -42 76 -63
92 -71 149 -71 l47 0 174 174 c163 162 174 176 168 203 -5 18 -51 71 -131 149
-68 66 -129 133 -134 147 -21 55 30 104 82 80 12 -6 63 -48 112 -94 136 -127
152 -139 191 -139 54 0 79 18 227 167 l137 140 0 55 c0 59 -2 63 -97 188 -18
24 -33 47 -33 52 0 5 13 23 30 39 36 36 55 33 118 -20 84 -70 103 -81 149 -81
24 0 54 5 66 11 31 16 276 259 293 291 20 39 18 105 -6 143 -11 18 -60 68
-109 113 -101 93 -122 129 -97 166 36 55 70 44 191 -65 152 -137 202 -154 286
-101 66 43 405 401 429 453 24 54 25 131 2 182 -20 44 -343 392 -384 413 -35
18 -56 17 -98 -6z"/>
</g>
</svg>
