<?xml version="1.0" standalone="no"?>
<!DOCTYPE svg PUBLIC "-//W3C//DTD SVG 20010904//EN"
 "http://www.w3.org/TR/2001/REC-SVG-20010904/DTD/svg10.dtd">
<svg version="1.0" xmlns="http://www.w3.org/2000/svg"
 width="225.000000pt" height="225.000000pt" viewBox="0 0 225.000000 225.000000"
 preserveAspectRatio="xMidYMid meet">
<metadata>
Created by potrace 1.16, written by Peter Selinger 2001-2019
</metadata>
<g transform="translate(0.000000,225.000000) scale(0.100000,-0.100000)"
fill="#000000" stroke="none">
<path d="M29 1621 l-29 -29 0 -182 0 -182 29 -29 c16 -16 40 -29 53 -29 30 0
48 -17 48 -45 0 -28 -18 -45 -48 -45 -13 0 -37 -13 -53 -29 l-29 -29 0 -182 0
-182 29 -29 29 -29 1067 0 1067 0 29 29 29 29 0 182 0 182 -29 29 c-16 16 -40
29 -53 29 -30 0 -48 17 -48 45 0 28 18 45 48 45 13 0 37 13 53 29 l29 29 0
182 0 182 -29 29 -29 29 -1067 0 -1067 0 -29 -29z m2049 -217 l3 -71 -40 -26
c-127 -84 -127 -280 0 -364 l40 -26 -3 -71 -3 -71 -950 0 -950 0 -3 70 -3 71
44 31 c120 84 121 272 0 356 l-43 31 0 66 c0 37 3 70 7 73 3 4 432 6 952 5
l946 -3 3 -71z"/>
<path d="M625 1315 c-25 -24 -25 -27 -25 -190 0 -163 0 -166 25 -190 16 -17
35 -25 60 -25 25 0 44 8 60 25 25 24 25 27 25 190 0 163 0 166 -25 190 -16 17
-35 25 -60 25 -25 0 -44 -8 -60 -25z"/>
<path d="M1065 1315 c-25 -24 -25 -27 -25 -190 0 -163 0 -166 25 -190 16 -17
35 -25 60 -25 25 0 44 8 60 25 25 24 25 27 25 190 0 163 0 166 -25 190 -16 17
-35 25 -60 25 -25 0 -44 -8 -60 -25z"/>
<path d="M1505 1315 c-25 -24 -25 -27 -25 -190 0 -163 0 -166 25 -190 16 -17
35 -25 60 -25 25 0 44 8 60 25 25 24 25 27 25 190 0 163 0 166 -25 190 -16 17
-35 25 -60 25 -25 0 -44 -8 -60 -25z"/>
</g>
</svg>
